<svg width="325" height="83" viewBox="0 0 325 83" fill="none" xmlns="http://www.w3.org/2000/svg">
<path d="M106.05 53.5C103.55 53.5 101.367 53 99.5 52C97.6333 51 96.1833 49.6167 95.15 47.85C94.15 46.05 93.65 43.9333 93.65 41.5C93.65 39.0333 94.15 36.9167 95.15 35.15C96.1833 33.35 97.6333 31.9667 99.5 31C101.367 30 103.567 29.5 106.1 29.5C108.633 29.5 110.783 29.9667 112.55 30.9C114.35 31.8 115.717 33.1333 116.65 34.9C117.583 36.6333 118.05 38.7333 118.05 41.2C118.05 41.5 118.033 41.8167 118 42.15C118 42.4833 117.983 42.75 117.95 42.95H97.35V38.95H112.3L110.55 41.25C110.683 41.05 110.8 40.7833 110.9 40.45C111.033 40.0833 111.1 39.7833 111.1 39.55C111.1 38.4167 110.883 37.45 110.45 36.65C110.05 35.85 109.467 35.2167 108.7 34.75C107.933 34.2833 107.033 34.05 106 34.05C104.733 34.05 103.667 34.3333 102.8 34.9C101.967 35.4333 101.317 36.25 100.85 37.35C100.417 38.4167 100.183 39.75 100.15 41.35C100.15 42.8833 100.367 44.1833 100.8 45.25C101.267 46.3167 101.95 47.1333 102.85 47.7C103.75 48.2667 104.833 48.55 106.1 48.55C107.533 48.55 108.75 48.2833 109.75 47.75C110.783 47.1833 111.633 46.35 112.3 45.25L117.95 47C116.75 49.1667 115.15 50.8 113.15 51.9C111.183 52.9667 108.817 53.5 106.05 53.5ZM136.202 30H143.352L134.852 41.15L143.852 53H136.702L131.502 45.7L126.402 53H119.002L128.102 41.15L119.502 30H126.902L131.502 36.65L136.202 30ZM153.405 64H146.905V30H153.405V64ZM172.305 41.5C172.305 44.1 171.789 46.3167 170.755 48.15C169.722 49.9833 168.355 51.3667 166.655 52.3C164.989 53.2333 163.189 53.7 161.255 53.7C159.289 53.7 157.572 53.2 156.105 52.2C154.672 51.2 153.555 49.7833 152.755 47.95C151.989 46.1167 151.605 43.9667 151.605 41.5C151.605 39 151.989 36.85 152.755 35.05C153.555 33.2167 154.672 31.8 156.105 30.8C157.572 29.8 159.289 29.3 161.255 29.3C163.189 29.3 164.989 29.7667 166.655 30.7C168.355 31.6333 169.722 33.0167 170.755 34.85C171.789 36.65 172.305 38.8667 172.305 41.5ZM165.605 41.5C165.605 40.1333 165.322 38.9667 164.755 38C164.189 37.0333 163.422 36.3 162.455 35.8C161.522 35.3 160.489 35.05 159.355 35.05C158.389 35.05 157.439 35.3 156.505 35.8C155.605 36.2667 154.855 36.9833 154.255 37.95C153.689 38.9167 153.405 40.1 153.405 41.5C153.405 42.9 153.689 44.0833 154.255 45.05C154.855 46.0167 155.605 46.75 156.505 47.25C157.439 47.7167 158.389 47.95 159.355 47.95C160.489 47.95 161.522 47.7 162.455 47.2C163.422 46.7 164.189 45.9667 164.755 45C165.322 44.0333 165.605 42.8667 165.605 41.5ZM177.134 14H183.634V53H177.134V14ZM188.474 41.5C188.474 39.1 189.024 37 190.124 35.2C191.258 33.4 192.774 32 194.674 31C196.608 30 198.791 29.5 201.224 29.5C203.658 29.5 205.824 30 207.724 31C209.658 32 211.174 33.4 212.274 35.2C213.408 37 213.974 39.1 213.974 41.5C213.974 43.8667 213.408 45.9667 212.274 47.8C211.174 49.6 209.658 51 207.724 52C205.824 53 203.658 53.5 201.224 53.5C198.791 53.5 196.608 53 194.674 52C192.774 51 191.258 49.6 190.124 47.8C189.024 45.9667 188.474 43.8667 188.474 41.5ZM195.074 41.5C195.074 42.8 195.341 43.95 195.874 44.95C196.441 45.9167 197.191 46.6833 198.124 47.25C199.058 47.7833 200.091 48.05 201.224 48.05C202.358 48.05 203.391 47.7833 204.324 47.25C205.258 46.6833 205.991 45.9167 206.524 44.95C207.091 43.95 207.374 42.8 207.374 41.5C207.374 40.2 207.091 39.05 206.524 38.05C205.991 37.05 205.258 36.2833 204.324 35.75C203.391 35.2167 202.358 34.95 201.224 34.95C200.091 34.95 199.058 35.2167 198.124 35.75C197.191 36.2833 196.441 37.05 195.874 38.05C195.341 39.05 195.074 40.2 195.074 41.5ZM216.943 50.05C216.943 48.9167 217.326 47.9667 218.093 47.2C218.893 46.4 219.876 46 221.043 46C222.243 46 223.226 46.4 223.993 47.2C224.759 47.9667 225.143 48.9167 225.143 50.05C225.143 51.1167 224.759 52.05 223.993 52.85C223.226 53.65 222.243 54.05 221.043 54.05C219.876 54.05 218.893 53.65 218.093 52.85C217.326 52.05 216.943 51.1167 216.943 50.05ZM231.414 21.1C231.414 20.0333 231.797 19.1667 232.564 18.5C233.331 17.8 234.247 17.45 235.314 17.45C236.381 17.45 237.281 17.8 238.014 18.5C238.781 19.1667 239.164 20.0333 239.164 21.1C239.164 22.1333 238.781 23 238.014 23.7C237.281 24.4 236.381 24.75 235.314 24.75C234.247 24.75 233.331 24.4 232.564 23.7C231.797 23 231.414 22.1333 231.414 21.1ZM227.514 57.45C227.814 57.8167 228.164 58.1167 228.564 58.35C228.931 58.5833 229.364 58.7 229.864 58.7C230.397 58.7 230.847 58.5667 231.214 58.3C231.581 58.0333 231.847 57.6167 232.014 57.05C232.181 56.5167 232.264 55.8167 232.264 54.95V30H238.514V56.45C238.514 58.0833 238.214 59.5167 237.614 60.75C237.014 61.9833 236.114 62.9333 234.914 63.6C233.714 64.3 232.231 64.65 230.464 64.65C229.497 64.65 228.664 64.5333 227.964 64.3C227.231 64.0667 226.614 63.7667 226.114 63.4C225.581 63.0333 225.114 62.6667 224.714 62.3L227.514 57.45ZM246.496 45.05C247.463 45.95 248.363 46.6833 249.196 47.25C250.03 47.7833 250.813 48.1833 251.546 48.45C252.313 48.7167 253.03 48.85 253.696 48.85C254.563 48.85 255.23 48.6667 255.696 48.3C256.163 47.9 256.396 47.3667 256.396 46.7C256.396 46.1 256.196 45.6 255.796 45.2C255.43 44.7667 254.88 44.3833 254.146 44.05C253.413 43.7167 252.48 43.3667 251.346 43C250.28 42.6 249.246 42.1333 248.246 41.6C247.246 41.0333 246.413 40.3 245.746 39.4C245.113 38.4667 244.796 37.2833 244.796 35.85C244.796 34.4833 245.163 33.3333 245.896 32.4C246.63 31.4333 247.613 30.7167 248.846 30.25C250.113 29.75 251.513 29.5 253.046 29.5C254.346 29.5 255.563 29.6667 256.696 30C257.83 30.3333 258.88 30.7833 259.846 31.35C260.813 31.8833 261.663 32.5167 262.396 33.25L259.546 37.25C258.713 36.35 257.713 35.6167 256.546 35.05C255.413 34.4833 254.296 34.2 253.196 34.2C252.463 34.2 251.88 34.35 251.446 34.65C251.046 34.9167 250.846 35.3333 250.846 35.9C250.846 36.4 251.046 36.85 251.446 37.25C251.88 37.6167 252.48 37.95 253.246 38.25C254.046 38.55 254.946 38.9167 255.946 39.35C257.18 39.8167 258.313 40.35 259.346 40.95C260.413 41.5167 261.263 42.2333 261.896 43.1C262.53 43.9667 262.846 45.1 262.846 46.5C262.846 48.8 262.096 50.6 260.596 51.9C259.096 53.1667 257.03 53.8 254.396 53.8C252.763 53.8 251.263 53.5833 249.896 53.15C248.563 52.7167 247.346 52.15 246.246 51.45C245.18 50.7167 244.213 49.9333 243.346 49.1L246.496 45.05Z" fill="white"/>
<path d="M242.411 76.818C241.618 76.888 240.801 76.9113 239.961 76.888C239.121 76.8413 238.304 76.7363 237.511 76.573C236.718 76.4097 236.239 76.0597 236.076 75.523C235.913 74.9863 236.053 74.3563 236.496 73.633C237.779 74.2863 239.039 74.6597 240.276 74.753C241.536 74.8463 242.784 74.7647 244.021 74.508C245.258 74.228 246.483 73.8897 247.696 73.493C247.953 73.423 248.209 73.248 248.466 72.968C248.723 72.6647 248.839 72.4197 248.816 72.233C248.793 71.9763 248.664 71.708 248.431 71.428C248.198 71.1247 247.953 70.9147 247.696 70.798C246.343 70.0513 244.954 69.363 243.531 68.733C242.108 68.103 240.754 67.3563 239.471 66.493C237.978 65.4897 236.939 64.2997 236.356 62.923C235.773 61.523 235.901 60.0413 236.741 58.478C236.858 58.2447 236.986 58.023 237.126 57.813C237.289 57.5797 237.464 57.4047 237.651 57.288C238.888 56.5647 240.136 55.9813 241.396 55.538C242.656 55.0713 243.951 54.8263 245.281 54.803C246.634 54.7563 248.011 55.0247 249.411 55.608C250.228 55.9113 250.799 56.413 251.126 57.113C251.476 57.7897 251.511 58.513 251.231 59.283C251.184 59.4463 251.068 59.6213 250.881 59.808C250.718 59.9713 250.543 60.0763 250.356 60.123C250.263 60.1463 250.099 60.0763 249.866 59.913C249.656 59.7263 249.551 59.5747 249.551 59.458C249.574 58.7347 249.353 58.268 248.886 58.058C248.443 57.848 247.988 57.6963 247.521 57.603C246.214 57.3697 244.931 57.3463 243.671 57.533C242.411 57.6963 241.186 58.1163 239.996 58.793C239.086 59.3063 238.491 59.948 238.211 60.718C237.931 61.4647 237.954 62.223 238.281 62.993C238.608 63.763 239.226 64.4163 240.136 64.953C241.303 65.6297 242.504 66.2363 243.741 66.773C245.001 67.3097 246.226 67.893 247.416 68.523C247.976 68.8263 248.524 69.1763 249.061 69.573C249.598 69.9463 250.053 70.378 250.426 70.868C251.196 71.8013 251.464 72.7347 251.231 73.668C250.998 74.6013 250.309 75.2547 249.166 75.628C248.093 75.9547 246.984 76.2113 245.841 76.398C244.698 76.5613 243.554 76.7013 242.411 76.818Z" fill="#3B82F6"/>
<path d="M285.381 78.953C285.078 79.0463 284.856 78.9997 284.716 78.813C284.576 78.6263 284.448 78.4163 284.331 78.183C283.864 77.0163 283.479 75.838 283.176 74.648C282.896 73.458 282.663 72.2447 282.476 71.008C282.453 70.798 282.394 70.518 282.301 70.168C282.231 69.7947 282.161 69.4447 282.091 69.118C282.021 68.768 281.963 68.558 281.916 68.488C281.753 68.488 281.566 68.5813 281.356 68.768C281.146 68.9313 280.948 69.1063 280.761 69.293C280.598 69.4797 280.481 69.608 280.411 69.678C279.968 70.238 279.583 70.7397 279.256 71.183C278.929 71.6263 278.603 72.0697 278.276 72.513C277.973 72.9563 277.588 73.458 277.121 74.018C276.794 74.4147 276.433 74.7647 276.036 75.068C275.639 75.348 275.138 75.4647 274.531 75.418C273.574 75.3247 272.863 74.8347 272.396 73.948C271.836 72.758 271.474 71.5213 271.311 70.238C271.171 68.9547 271.101 67.6713 271.101 66.388C271.124 65.828 271.136 65.268 271.136 64.708C271.136 64.148 271.148 63.588 271.171 63.028C271.171 62.398 270.891 62.153 270.331 62.293C269.654 62.4797 268.966 62.6897 268.266 62.923C267.566 63.133 266.854 63.3197 266.131 63.483C265.198 63.6463 264.603 64.0313 264.346 64.638C264.089 65.2213 263.926 65.8863 263.856 66.633C263.786 67.2863 263.669 68.1147 263.506 69.118C263.366 70.098 263.214 71.0897 263.051 72.093C262.888 73.073 262.736 73.9247 262.596 74.648C262.479 75.3713 262.398 75.803 262.351 75.943C262.211 76.433 262.001 76.888 261.721 77.308C261.651 77.4013 261.523 77.4597 261.336 77.483C261.173 77.5297 261.033 77.5413 260.916 77.518C260.823 77.4713 260.729 77.3663 260.636 77.203C260.566 77.0397 260.531 76.8997 260.531 76.783C260.601 75.8263 260.683 74.8697 260.776 73.913C260.869 72.9563 260.939 71.988 260.986 71.008C261.056 70.238 261.126 69.433 261.196 68.593C261.289 67.7297 261.348 66.913 261.371 66.143C261.418 65.5597 261.383 65.2447 261.266 65.198C261.149 65.1513 260.776 65.1863 260.146 65.303C259.376 65.4663 258.594 65.6413 257.801 65.828C257.008 66.0147 256.203 66.1663 255.386 66.283C254.686 66.3997 254.126 66.143 253.706 65.513C253.333 64.9063 253.449 64.5097 254.056 64.323C254.126 64.2763 254.406 64.1947 254.896 64.078C255.409 63.9613 256.016 63.833 256.716 63.693C257.416 63.5297 258.116 63.3663 258.816 63.203C259.516 63.0397 260.088 62.9113 260.531 62.818C260.951 62.7013 261.254 62.5147 261.441 62.258C261.651 62.0013 261.779 61.6513 261.826 61.208C262.059 59.458 262.129 57.7197 262.036 55.993C261.966 54.243 261.803 52.493 261.546 50.743C261.499 50.4397 261.441 50.1247 261.371 49.798C261.324 49.4713 261.523 49.2263 261.966 49.063C262.269 48.923 262.643 49.0163 263.086 49.343C263.529 49.6463 263.798 49.9963 263.891 50.393C263.891 50.4163 263.926 50.6613 263.996 51.128C264.066 51.5947 264.148 52.2013 264.241 52.948C264.334 53.6713 264.416 54.4763 264.486 55.363C264.556 56.2263 264.603 57.078 264.626 57.918C264.649 58.7347 264.614 59.4697 264.521 60.123C264.451 60.753 264.498 61.103 264.661 61.173C264.824 61.243 265.244 61.1963 265.921 61.033C266.691 60.8463 267.473 60.6713 268.266 60.508C269.059 60.3447 269.864 60.228 270.681 60.158C271.358 60.1113 271.953 60.3213 272.466 60.788C273.003 61.2313 273.318 61.7913 273.411 62.468C273.458 62.818 273.504 63.4247 273.551 64.288C273.621 65.128 273.679 66.0497 273.726 67.053C273.796 68.0563 273.854 69.0013 273.901 69.888C273.971 70.7747 274.041 71.428 274.111 71.848C274.134 71.988 274.193 72.1163 274.286 72.233C274.403 72.3497 274.484 72.4663 274.531 72.583C274.648 72.4897 274.764 72.4197 274.881 72.373C274.998 72.303 275.079 72.2213 275.126 72.128C275.896 71.1947 276.643 70.2613 277.366 69.328C278.113 68.3947 278.848 67.4613 279.571 66.528C280.201 65.7813 280.854 65.1397 281.531 64.603C281.904 64.323 282.254 64.218 282.581 64.288C282.931 64.358 283.211 64.5913 283.421 64.988C283.678 65.4313 283.911 65.9097 284.121 66.423C284.331 66.913 284.483 67.4147 284.576 67.928C284.693 68.488 284.809 69.1647 284.926 69.958C285.043 70.7513 285.171 71.568 285.311 72.408C285.451 73.248 285.568 74.053 285.661 74.823C285.778 75.5697 285.871 76.188 285.941 76.678C286.034 77.168 286.093 77.448 286.116 77.518C286.349 78.288 286.104 78.7663 285.381 78.953Z" fill="#3B82F6"/>
<path d="M300.356 76.888C299.96 76.888 299.68 76.6897 299.516 76.293C299.213 75.523 299.015 74.893 298.921 74.403C298.828 73.913 298.793 73.4113 298.816 72.898C298.84 72.3613 298.851 71.6613 298.851 70.798C298.781 70.5413 298.665 70.5297 298.501 70.763C298.338 70.9963 298.151 71.3463 297.941 71.813C297.755 72.2563 297.568 72.6647 297.381 73.038C297.078 73.6213 296.716 74.1697 296.296 74.683C295.9 75.1963 295.386 75.6163 294.756 75.943C294.033 76.3163 293.333 76.4563 292.656 76.363C291.98 76.2697 291.373 75.9197 290.836 75.313C290.02 74.4263 289.413 73.4463 289.016 72.373C288.643 71.2763 288.538 70.1447 288.701 68.978C288.795 68.3947 288.876 67.8113 288.946 67.228C289.04 66.6447 289.168 66.0847 289.331 65.548C289.845 64.1013 290.731 62.9463 291.991 62.083C293.251 61.2197 294.461 60.6194 296.156 60.788C296.266 60.7989 296.327 60.8115 296.436 60.823C296.804 60.8614 297.031 60.8347 297.381 60.858C297.755 60.8813 297.988 60.893 298.081 60.893C298.291 58.933 298.431 57.3813 298.501 56.238C298.595 55.0713 298.676 54.208 298.746 53.648C298.84 53.088 298.968 52.7263 299.131 52.563C299.318 52.3997 299.586 52.318 299.936 52.318C300.333 52.318 300.578 52.4347 300.671 52.668C300.788 52.878 300.893 53.2397 300.986 53.753C301.243 55.5963 301.29 57.463 301.126 59.353C300.986 61.243 300.858 63.2497 300.741 65.373C300.671 66.7263 300.706 68.0797 300.846 69.433C300.986 70.7863 301.01 72.1397 300.916 73.493C300.893 73.9363 300.986 74.368 301.196 74.788C301.406 75.208 301.511 75.593 301.511 75.943C301.511 76.2697 301.36 76.5147 301.056 76.678C300.776 76.818 300.543 76.888 300.356 76.888ZM293.426 74.438C293.753 74.4147 294.08 74.1813 294.406 73.738C294.756 73.2713 295.095 72.6763 295.421 71.953C295.748 71.2063 296.075 70.3897 296.401 69.503C296.728 68.6163 297.055 67.7413 297.381 66.878C297.708 65.898 297.836 65.0813 297.766 64.428C297.72 63.7513 297.428 63.2963 296.891 63.063C296.355 62.8297 295.503 62.888 294.336 63.238C293.426 63.518 292.68 64.0897 292.096 64.953C291.536 65.8163 291.233 66.7847 291.186 67.858C291.163 68.3713 291.14 68.9663 291.116 69.643C291.116 70.2963 291.14 70.8213 291.186 71.218C291.256 71.6613 291.326 72.1397 291.396 72.653C291.466 73.143 291.641 73.563 291.921 73.913C292.225 74.263 292.726 74.438 293.426 74.438Z" fill="#3B82F6"/>
<path d="M309.282 63.168C309.118 63.168 308.943 63.098 308.757 62.958C308.29 62.5613 307.812 62.153 307.322 61.733C306.855 61.2897 306.458 60.7413 306.132 60.088C306.528 59.598 306.902 59.353 307.252 59.353C307.532 59.353 307.8 59.5163 308.057 59.843C308.57 60.3563 309.013 60.7763 309.387 61.103C309.76 61.4063 309.947 61.803 309.947 62.293C309.947 62.5497 309.877 62.7597 309.737 62.923C309.62 63.0863 309.468 63.168 309.282 63.168ZM307.707 77.343C307.427 77.5063 307.17 77.4247 306.937 77.098C306.703 76.7947 306.517 76.398 306.377 75.908C306.237 75.3947 306.143 74.9747 306.097 74.648C305.98 73.6213 305.875 72.6063 305.782 71.603C305.712 70.5763 305.63 69.5497 305.537 68.523L305.782 65.933C305.828 65.4897 305.98 65.1513 306.237 64.918C306.517 64.6847 306.832 64.5913 307.182 64.638C307.485 64.6613 307.753 64.813 307.987 65.093C308.22 65.373 308.348 65.723 308.372 66.143C308.372 66.3063 308.348 66.493 308.302 66.703C308.255 66.8897 308.232 67.088 308.232 67.298C308.232 68.7213 308.232 70.1447 308.232 71.568C308.232 72.9913 308.243 74.4147 308.267 75.838C308.267 76.258 308.197 76.5963 308.057 76.853C307.94 77.1097 307.823 77.273 307.707 77.343Z" fill="#3B82F6"/>
<path d="M318.402 76.153C317.632 76.153 316.886 75.9547 316.162 75.558C315.299 75.0447 314.587 74.4147 314.027 73.668C313.467 72.898 313.059 72.0813 312.802 71.218C312.639 70.658 312.557 70.0397 312.557 69.363C312.557 68.0797 312.849 66.8313 313.432 65.618C313.782 64.9413 314.342 64.603 315.112 64.603C315.229 64.603 315.346 64.603 315.462 64.603C315.602 64.603 315.742 64.6263 315.882 64.673C316.069 64.6497 316.244 64.638 316.407 64.638C316.594 64.6147 316.757 64.5563 316.897 64.463C317.574 64.0897 318.239 63.903 318.892 63.903C319.499 63.903 320.071 64.0313 320.607 64.288C321.167 64.5213 321.704 64.8363 322.217 65.233C322.894 65.723 323.361 66.2947 323.617 66.948C323.874 67.578 324.002 68.2547 324.002 68.978C324.002 69.1413 324.002 69.328 324.002 69.538C324.002 69.7247 323.979 69.9113 323.932 70.098C323.792 70.9147 323.524 71.6847 323.127 72.408C322.754 73.1313 322.311 73.8313 321.797 74.508C321.401 75.0447 320.899 75.453 320.292 75.733C319.686 76.013 319.056 76.153 318.402 76.153ZM317.947 74.018C318.344 74.018 318.729 73.878 319.102 73.598C319.849 72.9913 320.432 72.303 320.852 71.533C321.272 70.763 321.576 69.9813 321.762 69.188C321.786 68.6047 321.634 68.033 321.307 67.473C321.004 66.913 320.654 66.5397 320.257 66.353C319.907 66.1897 319.534 66.108 319.137 66.108C318.554 66.108 317.947 66.3297 317.317 66.773C316.524 67.3563 315.952 67.9163 315.602 68.453C315.276 68.9663 315.112 69.4913 315.112 70.028C315.112 70.4713 315.206 70.9263 315.392 71.393C315.602 71.8363 315.859 72.3147 316.162 72.828C316.419 73.2247 316.699 73.528 317.002 73.738C317.329 73.9247 317.644 74.018 317.947 74.018Z" fill="#3B82F6"/>
<path d="M242.411 76.818C241.618 76.888 240.801 76.9113 239.961 76.888C239.121 76.8413 238.304 76.7363 237.511 76.573C236.718 76.4097 236.239 76.0597 236.076 75.523C235.913 74.9863 236.053 74.3563 236.496 73.633C237.779 74.2863 239.039 74.6597 240.276 74.753C241.536 74.8463 242.784 74.7647 244.021 74.508C245.258 74.228 246.483 73.8897 247.696 73.493C247.953 73.423 248.209 73.248 248.466 72.968C248.723 72.6647 248.839 72.4197 248.816 72.233C248.793 71.9763 248.664 71.708 248.431 71.428C248.198 71.1247 247.953 70.9147 247.696 70.798C246.343 70.0513 244.954 69.363 243.531 68.733C242.108 68.103 240.754 67.3563 239.471 66.493C237.978 65.4897 236.939 64.2997 236.356 62.923C235.773 61.523 235.901 60.0413 236.741 58.478C236.858 58.2447 236.986 58.023 237.126 57.813C237.289 57.5797 237.464 57.4047 237.651 57.288C238.888 56.5647 240.136 55.9813 241.396 55.538C242.656 55.0713 243.951 54.8263 245.281 54.803C246.634 54.7563 248.011 55.0247 249.411 55.608C250.228 55.9113 250.799 56.413 251.126 57.113C251.476 57.7897 251.511 58.513 251.231 59.283C251.184 59.4463 251.068 59.6213 250.881 59.808C250.718 59.9713 250.543 60.0763 250.356 60.123C250.263 60.1463 250.099 60.0763 249.866 59.913C249.656 59.7263 249.551 59.5747 249.551 59.458C249.574 58.7347 249.353 58.268 248.886 58.058C248.443 57.848 247.988 57.6963 247.521 57.603C246.214 57.3697 244.931 57.3463 243.671 57.533C242.411 57.6963 241.186 58.1163 239.996 58.793C239.086 59.3063 238.491 59.948 238.211 60.718C237.931 61.4647 237.954 62.223 238.281 62.993C238.608 63.763 239.226 64.4163 240.136 64.953C241.303 65.6297 242.504 66.2363 243.741 66.773C245.001 67.3097 246.226 67.893 247.416 68.523C247.976 68.8263 248.524 69.1763 249.061 69.573C249.598 69.9463 250.053 70.378 250.426 70.868C251.196 71.8013 251.464 72.7347 251.231 73.668C250.998 74.6013 250.309 75.2547 249.166 75.628C248.093 75.9547 246.984 76.2113 245.841 76.398C244.698 76.5613 243.554 76.7013 242.411 76.818Z" stroke="#3B82F6" stroke-width="2"/>
<path d="M285.381 78.953C285.078 79.0463 284.856 78.9997 284.716 78.813C284.576 78.6263 284.448 78.4163 284.331 78.183C283.864 77.0163 283.479 75.838 283.176 74.648C282.896 73.458 282.663 72.2447 282.476 71.008C282.453 70.798 282.394 70.518 282.301 70.168C282.231 69.7947 282.161 69.4447 282.091 69.118C282.021 68.768 281.963 68.558 281.916 68.488C281.753 68.488 281.566 68.5813 281.356 68.768C281.146 68.9313 280.948 69.1063 280.761 69.293C280.598 69.4797 280.481 69.608 280.411 69.678C279.968 70.238 279.583 70.7397 279.256 71.183C278.929 71.6263 278.603 72.0697 278.276 72.513C277.973 72.9563 277.588 73.458 277.121 74.018C276.794 74.4147 276.433 74.7647 276.036 75.068C275.639 75.348 275.138 75.4647 274.531 75.418C273.574 75.3247 272.863 74.8347 272.396 73.948C271.836 72.758 271.474 71.5213 271.311 70.238C271.171 68.9547 271.101 67.6713 271.101 66.388C271.124 65.828 271.136 65.268 271.136 64.708C271.136 64.148 271.148 63.588 271.171 63.028C271.171 62.398 270.891 62.153 270.331 62.293C269.654 62.4797 268.966 62.6897 268.266 62.923C267.566 63.133 266.854 63.3197 266.131 63.483C265.198 63.6463 264.603 64.0313 264.346 64.638C264.089 65.2213 263.926 65.8863 263.856 66.633C263.786 67.2863 263.669 68.1147 263.506 69.118C263.366 70.098 263.214 71.0897 263.051 72.093C262.888 73.073 262.736 73.9247 262.596 74.648C262.479 75.3713 262.398 75.803 262.351 75.943C262.211 76.433 262.001 76.888 261.721 77.308C261.651 77.4013 261.523 77.4597 261.336 77.483C261.173 77.5297 261.033 77.5413 260.916 77.518C260.823 77.4713 260.729 77.3663 260.636 77.203C260.566 77.0397 260.531 76.8997 260.531 76.783C260.601 75.8263 260.683 74.8697 260.776 73.913C260.869 72.9563 260.939 71.988 260.986 71.008C261.056 70.238 261.126 69.433 261.196 68.593C261.289 67.7297 261.348 66.913 261.371 66.143C261.418 65.5597 261.383 65.2447 261.266 65.198C261.149 65.1513 260.776 65.1863 260.146 65.303C259.376 65.4663 258.594 65.6413 257.801 65.828C257.008 66.0147 256.203 66.1663 255.386 66.283C254.686 66.3997 254.126 66.143 253.706 65.513C253.333 64.9063 253.449 64.5097 254.056 64.323C254.126 64.2763 254.406 64.1947 254.896 64.078C255.409 63.9613 256.016 63.833 256.716 63.693C257.416 63.5297 258.116 63.3663 258.816 63.203C259.516 63.0397 260.088 62.9113 260.531 62.818C260.951 62.7013 261.254 62.5147 261.441 62.258C261.651 62.0013 261.779 61.6513 261.826 61.208C262.059 59.458 262.129 57.7197 262.036 55.993C261.966 54.243 261.803 52.493 261.546 50.743C261.499 50.4397 261.441 50.1247 261.371 49.798C261.324 49.4713 261.523 49.2263 261.966 49.063C262.269 48.923 262.643 49.0163 263.086 49.343C263.529 49.6463 263.798 49.9963 263.891 50.393C263.891 50.4163 263.926 50.6613 263.996 51.128C264.066 51.5947 264.148 52.2013 264.241 52.948C264.334 53.6713 264.416 54.4763 264.486 55.363C264.556 56.2263 264.603 57.078 264.626 57.918C264.649 58.7347 264.614 59.4697 264.521 60.123C264.451 60.753 264.498 61.103 264.661 61.173C264.824 61.243 265.244 61.1963 265.921 61.033C266.691 60.8463 267.473 60.6713 268.266 60.508C269.059 60.3447 269.864 60.228 270.681 60.158C271.358 60.1113 271.953 60.3213 272.466 60.788C273.003 61.2313 273.318 61.7913 273.411 62.468C273.458 62.818 273.504 63.4247 273.551 64.288C273.621 65.128 273.679 66.0497 273.726 67.053C273.796 68.0563 273.854 69.0013 273.901 69.888C273.971 70.7747 274.041 71.428 274.111 71.848C274.134 71.988 274.193 72.1163 274.286 72.233C274.403 72.3497 274.484 72.4663 274.531 72.583C274.648 72.4897 274.764 72.4197 274.881 72.373C274.998 72.303 275.079 72.2213 275.126 72.128C275.896 71.1947 276.643 70.2613 277.366 69.328C278.113 68.3947 278.848 67.4613 279.571 66.528C280.201 65.7813 280.854 65.1397 281.531 64.603C281.904 64.323 282.254 64.218 282.581 64.288C282.931 64.358 283.211 64.5913 283.421 64.988C283.678 65.4313 283.911 65.9097 284.121 66.423C284.331 66.913 284.483 67.4147 284.576 67.928C284.693 68.488 284.809 69.1647 284.926 69.958C285.043 70.7513 285.171 71.568 285.311 72.408C285.451 73.248 285.568 74.053 285.661 74.823C285.778 75.5697 285.871 76.188 285.941 76.678C286.034 77.168 286.093 77.448 286.116 77.518C286.349 78.288 286.104 78.7663 285.381 78.953Z" stroke="#3B82F6" stroke-width="2"/>
<path d="M300.356 76.888C299.96 76.888 299.68 76.6897 299.516 76.293C299.213 75.523 299.015 74.893 298.921 74.403C298.828 73.913 298.793 73.4113 298.816 72.898C298.84 72.3613 298.851 71.6613 298.851 70.798C298.781 70.5413 298.665 70.5297 298.501 70.763C298.338 70.9963 298.151 71.3463 297.941 71.813C297.755 72.2563 297.568 72.6647 297.381 73.038C297.078 73.6213 296.716 74.1697 296.296 74.683C295.9 75.1963 295.386 75.6163 294.756 75.943C294.033 76.3163 293.333 76.4563 292.656 76.363C291.98 76.2697 291.373 75.9197 290.836 75.313C290.02 74.4263 289.413 73.4463 289.016 72.373C288.643 71.2763 288.538 70.1447 288.701 68.978C288.795 68.3947 288.876 67.8113 288.946 67.228C289.04 66.6447 289.168 66.0847 289.331 65.548C289.845 64.1013 290.731 62.9463 291.991 62.083C293.251 61.2197 294.461 60.6194 296.156 60.788C296.266 60.7989 296.327 60.8115 296.436 60.823C296.804 60.8614 297.031 60.8347 297.381 60.858C297.755 60.8813 297.988 60.893 298.081 60.893C298.291 58.933 298.431 57.3813 298.501 56.238C298.595 55.0713 298.676 54.208 298.746 53.648C298.84 53.088 298.968 52.7263 299.131 52.563C299.318 52.3997 299.586 52.318 299.936 52.318C300.333 52.318 300.578 52.4347 300.671 52.668C300.788 52.878 300.893 53.2397 300.986 53.753C301.243 55.5963 301.29 57.463 301.126 59.353C300.986 61.243 300.858 63.2497 300.741 65.373C300.671 66.7263 300.706 68.0797 300.846 69.433C300.986 70.7863 301.01 72.1397 300.916 73.493C300.893 73.9363 300.986 74.368 301.196 74.788C301.406 75.208 301.511 75.593 301.511 75.943C301.511 76.2697 301.36 76.5147 301.056 76.678C300.776 76.818 300.543 76.888 300.356 76.888ZM293.426 74.438C293.753 74.4147 294.08 74.1813 294.406 73.738C294.756 73.2713 295.095 72.6763 295.421 71.953C295.748 71.2063 296.075 70.3897 296.401 69.503C296.728 68.6163 297.055 67.7413 297.381 66.878C297.708 65.898 297.836 65.0813 297.766 64.428C297.72 63.7513 297.428 63.2963 296.891 63.063C296.355 62.8297 295.503 62.888 294.336 63.238C293.426 63.518 292.68 64.0897 292.096 64.953C291.536 65.8163 291.233 66.7847 291.186 67.858C291.163 68.3713 291.14 68.9663 291.116 69.643C291.116 70.2963 291.14 70.8213 291.186 71.218C291.256 71.6613 291.326 72.1397 291.396 72.653C291.466 73.143 291.641 73.563 291.921 73.913C292.225 74.263 292.726 74.438 293.426 74.438Z" stroke="#3B82F6" stroke-width="2"/>
<path d="M309.282 63.168C309.118 63.168 308.943 63.098 308.757 62.958C308.29 62.5613 307.812 62.153 307.322 61.733C306.855 61.2897 306.458 60.7413 306.132 60.088C306.528 59.598 306.902 59.353 307.252 59.353C307.532 59.353 307.8 59.5163 308.057 59.843C308.57 60.3563 309.013 60.7763 309.387 61.103C309.76 61.4063 309.947 61.803 309.947 62.293C309.947 62.5497 309.877 62.7597 309.737 62.923C309.62 63.0863 309.468 63.168 309.282 63.168ZM307.707 77.343C307.427 77.5063 307.17 77.4247 306.937 77.098C306.703 76.7947 306.517 76.398 306.377 75.908C306.237 75.3947 306.143 74.9747 306.097 74.648C305.98 73.6213 305.875 72.6063 305.782 71.603C305.712 70.5763 305.63 69.5497 305.537 68.523L305.782 65.933C305.828 65.4897 305.98 65.1513 306.237 64.918C306.517 64.6847 306.832 64.5913 307.182 64.638C307.485 64.6613 307.753 64.813 307.987 65.093C308.22 65.373 308.348 65.723 308.372 66.143C308.372 66.3063 308.348 66.493 308.302 66.703C308.255 66.8897 308.232 67.088 308.232 67.298C308.232 68.7213 308.232 70.1447 308.232 71.568C308.232 72.9913 308.243 74.4147 308.267 75.838C308.267 76.258 308.197 76.5963 308.057 76.853C307.94 77.1097 307.823 77.273 307.707 77.343Z" stroke="#3B82F6" stroke-width="2"/>
<path d="M318.402 76.153C317.632 76.153 316.886 75.9547 316.162 75.558C315.299 75.0447 314.587 74.4147 314.027 73.668C313.467 72.898 313.059 72.0813 312.802 71.218C312.639 70.658 312.557 70.0397 312.557 69.363C312.557 68.0797 312.849 66.8313 313.432 65.618C313.782 64.9413 314.342 64.603 315.112 64.603C315.229 64.603 315.346 64.603 315.462 64.603C315.602 64.603 315.742 64.6263 315.882 64.673C316.069 64.6497 316.244 64.638 316.407 64.638C316.594 64.6147 316.757 64.5563 316.897 64.463C317.574 64.0897 318.239 63.903 318.892 63.903C319.499 63.903 320.071 64.0313 320.607 64.288C321.167 64.5213 321.704 64.8363 322.217 65.233C322.894 65.723 323.361 66.2947 323.617 66.948C323.874 67.578 324.002 68.2547 324.002 68.978C324.002 69.1413 324.002 69.328 324.002 69.538C324.002 69.7247 323.979 69.9113 323.932 70.098C323.792 70.9147 323.524 71.6847 323.127 72.408C322.754 73.1313 322.311 73.8313 321.797 74.508C321.401 75.0447 320.899 75.453 320.292 75.733C319.686 76.013 319.056 76.153 318.402 76.153ZM317.947 74.018C318.344 74.018 318.729 73.878 319.102 73.598C319.849 72.9913 320.432 72.303 320.852 71.533C321.272 70.763 321.576 69.9813 321.762 69.188C321.786 68.6047 321.634 68.033 321.307 67.473C321.004 66.913 320.654 66.5397 320.257 66.353C319.907 66.1897 319.534 66.108 319.137 66.108C318.554 66.108 317.947 66.3297 317.317 66.773C316.524 67.3563 315.952 67.9163 315.602 68.453C315.276 68.9663 315.112 69.4913 315.112 70.028C315.112 70.4713 315.206 70.9263 315.392 71.393C315.602 71.8363 315.859 72.3147 316.162 72.828C316.419 73.2247 316.699 73.528 317.002 73.738C317.329 73.9247 317.644 74.018 317.947 74.018Z" stroke="#3B82F6" stroke-width="2"/>
<path d="M28 8.2265L22.2265 14L28 19.7735L33.7735 14L28 8.2265ZM28 61L29 61L29 14L28 14L27 14L27 61L28 61Z" fill="#3B82F6"/>
<path d="M11.4929 82.5862L19.5862 81.5071L18.5071 73.4138L10.4138 74.4929L11.4929 82.5862ZM28 61L27.2056 60.3925L14.2056 77.3925L15 78L15.7944 78.6074L28.7944 61.6075L28 61Z" fill="#FB5050"/>
<path d="M69.7735 61L64 55.2265L58.2265 61L64 66.7735L69.7735 61ZM28 61V62H64V61V60H28V61Z" fill="#C2FF52"/>
<rect x="13" y="31" width="24" height="24" rx="5" fill="#999999"/>
<path d="M10.584 53C11.771 55.9314 14.643 58 18 58H19.416C19.7912 58.9267 20 59.9388 20 61V65C20 69.4183 16.4183 73 12 73H8C3.58172 73 6.44277e-08 69.4183 0 65V61C0 56.5817 3.58172 53 8 53H10.584ZM43 45C47.4183 45 51 48.5817 51 53V57C51 61.4183 47.4183 65 43 65H39C34.9205 65 31.5567 61.9462 31.0645 58H32C36.4183 58 40 54.4183 40 50V45H43ZM18 23C21.357 23 24.229 25.0686 25.416 28H18C13.5817 28 10 31.5817 10 36V41.9268C7.60951 40.5433 6 37.9606 6 35V31C6 26.5817 9.58172 23 14 23H18ZM45 14C49.4183 14 53 17.5817 53 22V26C53 30.4183 49.4183 34 45 34H41C40.5635 34 40.1353 33.9638 39.7178 33.8965C38.9032 30.9006 36.3938 28.6036 33.2812 28.1025C33.0991 27.4324 33 26.7278 33 26V22C33 17.5817 36.5817 14 41 14H45Z" fill="#D9D9D9"/>
<rect x="26" y="59" width="4" height="4" rx="2" fill="#A6A6A6"/>
</svg>
