<svg width="233" height="80" viewBox="0 0 233 80" fill="none" xmlns="http://www.w3.org/2000/svg">
<path d="M14.05 53.5C11.55 53.5 9.36667 53 7.5 52C5.63333 51 4.18333 49.6167 3.15 47.85C2.15 46.05 1.65 43.9333 1.65 41.5C1.65 39.0333 2.15 36.9167 3.15 35.15C4.18333 33.35 5.63333 31.9667 7.5 31C9.36667 30 11.5667 29.5 14.1 29.5C16.6333 29.5 18.7833 29.9667 20.55 30.9C22.35 31.8 23.7167 33.1333 24.65 34.9C25.5833 36.6333 26.05 38.7333 26.05 41.2C26.05 41.5 26.0333 41.8167 26 42.15C26 42.4833 25.9833 42.75 25.95 42.95H5.35V38.95H20.3L18.55 41.25C18.6833 41.05 18.8 40.7833 18.9 40.45C19.0333 40.0833 19.1 39.7833 19.1 39.55C19.1 38.4167 18.8833 37.45 18.45 36.65C18.05 35.85 17.4667 35.2167 16.7 34.75C15.9333 34.2833 15.0333 34.05 14 34.05C12.7333 34.05 11.6667 34.3333 10.8 34.9C9.96667 35.4333 9.31667 36.25 8.85 37.35C8.41667 38.4167 8.18333 39.75 8.15 41.35C8.15 42.8833 8.36667 44.1833 8.8 45.25C9.26667 46.3167 9.95 47.1333 10.85 47.7C11.75 48.2667 12.8333 48.55 14.1 48.55C15.5333 48.55 16.75 48.2833 17.75 47.75C18.7833 47.1833 19.6333 46.35 20.3 45.25L25.95 47C24.75 49.1667 23.15 50.8 21.15 51.9C19.1833 52.9667 16.8167 53.5 14.05 53.5ZM44.202 30H51.352L42.852 41.15L51.852 53H44.702L39.502 45.7L34.402 53H27.002L36.102 41.15L27.502 30H34.902L39.502 36.65L44.202 30ZM61.4055 64H54.9055V30H61.4055V64ZM80.3055 41.5C80.3055 44.1 79.7888 46.3167 78.7555 48.15C77.7221 49.9833 76.3555 51.3667 74.6555 52.3C72.9888 53.2333 71.1888 53.7 69.2555 53.7C67.2888 53.7 65.5721 53.2 64.1055 52.2C62.6721 51.2 61.5555 49.7833 60.7555 47.95C59.9888 46.1167 59.6055 43.9667 59.6055 41.5C59.6055 39 59.9888 36.85 60.7555 35.05C61.5555 33.2167 62.6721 31.8 64.1055 30.8C65.5721 29.8 67.2888 29.3 69.2555 29.3C71.1888 29.3 72.9888 29.7667 74.6555 30.7C76.3555 31.6333 77.7221 33.0167 78.7555 34.85C79.7888 36.65 80.3055 38.8667 80.3055 41.5ZM73.6055 41.5C73.6055 40.1333 73.3221 38.9667 72.7555 38C72.1888 37.0333 71.4221 36.3 70.4555 35.8C69.5221 35.3 68.4888 35.05 67.3555 35.05C66.3888 35.05 65.4388 35.3 64.5055 35.8C63.6055 36.2667 62.8555 36.9833 62.2555 37.95C61.6888 38.9167 61.4055 40.1 61.4055 41.5C61.4055 42.9 61.6888 44.0833 62.2555 45.05C62.8555 46.0167 63.6055 46.75 64.5055 47.25C65.4388 47.7167 66.3888 47.95 67.3555 47.95C68.4888 47.95 69.5221 47.7 70.4555 47.2C71.4221 46.7 72.1888 45.9667 72.7555 45C73.3221 44.0333 73.6055 42.8667 73.6055 41.5ZM85.1336 14H91.6336V53H85.1336V14ZM96.4742 41.5C96.4742 39.1 97.0242 37 98.1242 35.2C99.2576 33.4 100.774 32 102.674 31C104.608 30 106.791 29.5 109.224 29.5C111.658 29.5 113.824 30 115.724 31C117.658 32 119.174 33.4 120.274 35.2C121.408 37 121.974 39.1 121.974 41.5C121.974 43.8667 121.408 45.9667 120.274 47.8C119.174 49.6 117.658 51 115.724 52C113.824 53 111.658 53.5 109.224 53.5C106.791 53.5 104.608 53 102.674 52C100.774 51 99.2576 49.6 98.1242 47.8C97.0242 45.9667 96.4742 43.8667 96.4742 41.5ZM103.074 41.5C103.074 42.8 103.341 43.95 103.874 44.95C104.441 45.9167 105.191 46.6833 106.124 47.25C107.058 47.7833 108.091 48.05 109.224 48.05C110.358 48.05 111.391 47.7833 112.324 47.25C113.258 46.6833 113.991 45.9167 114.524 44.95C115.091 43.95 115.374 42.8 115.374 41.5C115.374 40.2 115.091 39.05 114.524 38.05C113.991 37.05 113.258 36.2833 112.324 35.75C111.391 35.2167 110.358 34.95 109.224 34.95C108.091 34.95 107.058 35.2167 106.124 35.75C105.191 36.2833 104.441 37.05 103.874 38.05C103.341 39.05 103.074 40.2 103.074 41.5ZM124.943 50.05C124.943 48.9167 125.326 47.9667 126.093 47.2C126.893 46.4 127.876 46 129.043 46C130.243 46 131.226 46.4 131.993 47.2C132.759 47.9667 133.143 48.9167 133.143 50.05C133.143 51.1167 132.759 52.05 131.993 52.85C131.226 53.65 130.243 54.05 129.043 54.05C127.876 54.05 126.893 53.65 126.093 52.85C125.326 52.05 124.943 51.1167 124.943 50.05ZM139.414 21.1C139.414 20.0333 139.797 19.1667 140.564 18.5C141.331 17.8 142.247 17.45 143.314 17.45C144.381 17.45 145.281 17.8 146.014 18.5C146.781 19.1667 147.164 20.0333 147.164 21.1C147.164 22.1333 146.781 23 146.014 23.7C145.281 24.4 144.381 24.75 143.314 24.75C142.247 24.75 141.331 24.4 140.564 23.7C139.797 23 139.414 22.1333 139.414 21.1ZM135.514 57.45C135.814 57.8167 136.164 58.1167 136.564 58.35C136.931 58.5833 137.364 58.7 137.864 58.7C138.397 58.7 138.847 58.5667 139.214 58.3C139.581 58.0333 139.847 57.6167 140.014 57.05C140.181 56.5167 140.264 55.8167 140.264 54.95V30H146.514V56.45C146.514 58.0833 146.214 59.5167 145.614 60.75C145.014 61.9833 144.114 62.9333 142.914 63.6C141.714 64.3 140.231 64.65 138.464 64.65C137.497 64.65 136.664 64.5333 135.964 64.3C135.231 64.0667 134.614 63.7667 134.114 63.4C133.581 63.0333 133.114 62.6667 132.714 62.3L135.514 57.45ZM154.496 45.05C155.463 45.95 156.363 46.6833 157.196 47.25C158.03 47.7833 158.813 48.1833 159.546 48.45C160.313 48.7167 161.03 48.85 161.696 48.85C162.563 48.85 163.23 48.6667 163.696 48.3C164.163 47.9 164.396 47.3667 164.396 46.7C164.396 46.1 164.196 45.6 163.796 45.2C163.43 44.7667 162.88 44.3833 162.146 44.05C161.413 43.7167 160.48 43.3667 159.346 43C158.28 42.6 157.246 42.1333 156.246 41.6C155.246 41.0333 154.413 40.3 153.746 39.4C153.113 38.4667 152.796 37.2833 152.796 35.85C152.796 34.4833 153.163 33.3333 153.896 32.4C154.63 31.4333 155.613 30.7167 156.846 30.25C158.113 29.75 159.513 29.5 161.046 29.5C162.346 29.5 163.563 29.6667 164.696 30C165.83 30.3333 166.88 30.7833 167.846 31.35C168.813 31.8833 169.663 32.5167 170.396 33.25L167.546 37.25C166.713 36.35 165.713 35.6167 164.546 35.05C163.413 34.4833 162.296 34.2 161.196 34.2C160.463 34.2 159.88 34.35 159.446 34.65C159.046 34.9167 158.846 35.3333 158.846 35.9C158.846 36.4 159.046 36.85 159.446 37.25C159.88 37.6167 160.48 37.95 161.246 38.25C162.046 38.55 162.946 38.9167 163.946 39.35C165.18 39.8167 166.313 40.35 167.346 40.95C168.413 41.5167 169.263 42.2333 169.896 43.1C170.53 43.9667 170.846 45.1 170.846 46.5C170.846 48.8 170.096 50.6 168.596 51.9C167.096 53.1667 165.03 53.8 162.396 53.8C160.763 53.8 159.263 53.5833 157.896 53.15C156.563 52.7167 155.346 52.15 154.246 51.45C153.18 50.7167 152.213 49.9333 151.346 49.1L154.496 45.05Z" fill="white"/>
<path d="M150.411 76.818C149.618 76.888 148.801 76.9113 147.961 76.888C147.121 76.8413 146.304 76.7363 145.511 76.573C144.718 76.4097 144.239 76.0597 144.076 75.523C143.913 74.9863 144.053 74.3563 144.496 73.633C145.779 74.2863 147.039 74.6597 148.276 74.753C149.536 74.8463 150.784 74.7647 152.021 74.508C153.258 74.228 154.483 73.8897 155.696 73.493C155.953 73.423 156.209 73.248 156.466 72.968C156.723 72.6647 156.839 72.4197 156.816 72.233C156.793 71.9763 156.664 71.708 156.431 71.428C156.198 71.1247 155.953 70.9147 155.696 70.798C154.343 70.0513 152.954 69.363 151.531 68.733C150.108 68.103 148.754 67.3563 147.471 66.493C145.978 65.4897 144.939 64.2997 144.356 62.923C143.773 61.523 143.901 60.0413 144.741 58.478C144.858 58.2447 144.986 58.023 145.126 57.813C145.289 57.5797 145.464 57.4047 145.651 57.288C146.888 56.5647 148.136 55.9813 149.396 55.538C150.656 55.0713 151.951 54.8263 153.281 54.803C154.634 54.7563 156.011 55.0247 157.411 55.608C158.228 55.9113 158.799 56.413 159.126 57.113C159.476 57.7897 159.511 58.513 159.231 59.283C159.184 59.4463 159.068 59.6213 158.881 59.808C158.718 59.9713 158.543 60.0763 158.356 60.123C158.263 60.1463 158.099 60.0763 157.866 59.913C157.656 59.7263 157.551 59.5747 157.551 59.458C157.574 58.7347 157.353 58.268 156.886 58.058C156.443 57.848 155.988 57.6963 155.521 57.603C154.214 57.3697 152.931 57.3463 151.671 57.533C150.411 57.6963 149.186 58.1163 147.996 58.793C147.086 59.3063 146.491 59.948 146.211 60.718C145.931 61.4647 145.954 62.223 146.281 62.993C146.608 63.763 147.226 64.4163 148.136 64.953C149.303 65.6297 150.504 66.2363 151.741 66.773C153.001 67.3097 154.226 67.893 155.416 68.523C155.976 68.8263 156.524 69.1763 157.061 69.573C157.598 69.9463 158.053 70.378 158.426 70.868C159.196 71.8013 159.464 72.7347 159.231 73.668C158.998 74.6013 158.309 75.2547 157.166 75.628C156.093 75.9547 154.984 76.2113 153.841 76.398C152.698 76.5613 151.554 76.7013 150.411 76.818Z" fill="#3B82F6"/>
<path d="M193.381 78.953C193.078 79.0463 192.856 78.9997 192.716 78.813C192.576 78.6263 192.448 78.4163 192.331 78.183C191.864 77.0163 191.479 75.838 191.176 74.648C190.896 73.458 190.663 72.2447 190.476 71.008C190.453 70.798 190.394 70.518 190.301 70.168C190.231 69.7947 190.161 69.4447 190.091 69.118C190.021 68.768 189.963 68.558 189.916 68.488C189.753 68.488 189.566 68.5813 189.356 68.768C189.146 68.9313 188.948 69.1063 188.761 69.293C188.598 69.4797 188.481 69.608 188.411 69.678C187.968 70.238 187.583 70.7397 187.256 71.183C186.929 71.6263 186.603 72.0697 186.276 72.513C185.973 72.9563 185.588 73.458 185.121 74.018C184.794 74.4147 184.433 74.7647 184.036 75.068C183.639 75.348 183.138 75.4647 182.531 75.418C181.574 75.3247 180.863 74.8347 180.396 73.948C179.836 72.758 179.474 71.5213 179.311 70.238C179.171 68.9547 179.101 67.6713 179.101 66.388C179.124 65.828 179.136 65.268 179.136 64.708C179.136 64.148 179.148 63.588 179.171 63.028C179.171 62.398 178.891 62.153 178.331 62.293C177.654 62.4797 176.966 62.6897 176.266 62.923C175.566 63.133 174.854 63.3197 174.131 63.483C173.198 63.6463 172.603 64.0313 172.346 64.638C172.089 65.2213 171.926 65.8863 171.856 66.633C171.786 67.2863 171.669 68.1147 171.506 69.118C171.366 70.098 171.214 71.0897 171.051 72.093C170.888 73.073 170.736 73.9247 170.596 74.648C170.479 75.3713 170.398 75.803 170.351 75.943C170.211 76.433 170.001 76.888 169.721 77.308C169.651 77.4013 169.523 77.4597 169.336 77.483C169.173 77.5297 169.033 77.5413 168.916 77.518C168.823 77.4713 168.729 77.3663 168.636 77.203C168.566 77.0397 168.531 76.8997 168.531 76.783C168.601 75.8263 168.683 74.8697 168.776 73.913C168.869 72.9563 168.939 71.988 168.986 71.008C169.056 70.238 169.126 69.433 169.196 68.593C169.289 67.7297 169.348 66.913 169.371 66.143C169.418 65.5597 169.383 65.2447 169.266 65.198C169.149 65.1513 168.776 65.1863 168.146 65.303C167.376 65.4663 166.594 65.6413 165.801 65.828C165.008 66.0147 164.203 66.1663 163.386 66.283C162.686 66.3997 162.126 66.143 161.706 65.513C161.333 64.9063 161.449 64.5097 162.056 64.323C162.126 64.2763 162.406 64.1947 162.896 64.078C163.409 63.9613 164.016 63.833 164.716 63.693C165.416 63.5297 166.116 63.3663 166.816 63.203C167.516 63.0397 168.088 62.9113 168.531 62.818C168.951 62.7013 169.254 62.5147 169.441 62.258C169.651 62.0013 169.779 61.6513 169.826 61.208C170.059 59.458 170.129 57.7197 170.036 55.993C169.966 54.243 169.803 52.493 169.546 50.743C169.499 50.4397 169.441 50.1247 169.371 49.798C169.324 49.4713 169.523 49.2263 169.966 49.063C170.269 48.923 170.643 49.0163 171.086 49.343C171.529 49.6463 171.798 49.9963 171.891 50.393C171.891 50.4163 171.926 50.6613 171.996 51.128C172.066 51.5947 172.148 52.2013 172.241 52.948C172.334 53.6713 172.416 54.4763 172.486 55.363C172.556 56.2263 172.603 57.078 172.626 57.918C172.649 58.7347 172.614 59.4697 172.521 60.123C172.451 60.753 172.498 61.103 172.661 61.173C172.824 61.243 173.244 61.1963 173.921 61.033C174.691 60.8463 175.473 60.6713 176.266 60.508C177.059 60.3447 177.864 60.228 178.681 60.158C179.358 60.1113 179.953 60.3213 180.466 60.788C181.003 61.2313 181.318 61.7913 181.411 62.468C181.458 62.818 181.504 63.4247 181.551 64.288C181.621 65.128 181.679 66.0497 181.726 67.053C181.796 68.0563 181.854 69.0013 181.901 69.888C181.971 70.7747 182.041 71.428 182.111 71.848C182.134 71.988 182.193 72.1163 182.286 72.233C182.403 72.3497 182.484 72.4663 182.531 72.583C182.648 72.4897 182.764 72.4197 182.881 72.373C182.998 72.303 183.079 72.2213 183.126 72.128C183.896 71.1947 184.643 70.2613 185.366 69.328C186.113 68.3947 186.848 67.4613 187.571 66.528C188.201 65.7813 188.854 65.1397 189.531 64.603C189.904 64.323 190.254 64.218 190.581 64.288C190.931 64.358 191.211 64.5913 191.421 64.988C191.678 65.4313 191.911 65.9097 192.121 66.423C192.331 66.913 192.483 67.4147 192.576 67.928C192.693 68.488 192.809 69.1647 192.926 69.958C193.043 70.7513 193.171 71.568 193.311 72.408C193.451 73.248 193.568 74.053 193.661 74.823C193.778 75.5697 193.871 76.188 193.941 76.678C194.034 77.168 194.093 77.448 194.116 77.518C194.349 78.288 194.104 78.7663 193.381 78.953Z" fill="#3B82F6"/>
<path d="M208.356 76.888C207.96 76.888 207.68 76.6897 207.516 76.293C207.213 75.523 207.015 74.893 206.921 74.403C206.828 73.913 206.793 73.4113 206.816 72.898C206.84 72.3613 206.851 71.6613 206.851 70.798C206.781 70.5413 206.665 70.5297 206.501 70.763C206.338 70.9963 206.151 71.3463 205.941 71.813C205.755 72.2563 205.568 72.6647 205.381 73.038C205.078 73.6213 204.716 74.1697 204.296 74.683C203.9 75.1963 203.386 75.6163 202.756 75.943C202.033 76.3163 201.333 76.4563 200.656 76.363C199.98 76.2697 199.373 75.9197 198.836 75.313C198.02 74.4263 197.413 73.4463 197.016 72.373C196.643 71.2763 196.538 70.1447 196.701 68.978C196.795 68.3947 196.876 67.8113 196.946 67.228C197.04 66.6447 197.168 66.0847 197.331 65.548C197.845 64.1013 198.731 62.9463 199.991 62.083C201.251 61.2197 202.461 60.6194 204.156 60.788C204.266 60.7989 204.327 60.8115 204.436 60.823C204.804 60.8614 205.031 60.8347 205.381 60.858C205.755 60.8813 205.988 60.893 206.081 60.893C206.291 58.933 206.431 57.3813 206.501 56.238C206.595 55.0713 206.676 54.208 206.746 53.648C206.84 53.088 206.968 52.7263 207.131 52.563C207.318 52.3997 207.586 52.318 207.936 52.318C208.333 52.318 208.578 52.4347 208.671 52.668C208.788 52.878 208.893 53.2397 208.986 53.753C209.243 55.5963 209.29 57.463 209.126 59.353C208.986 61.243 208.858 63.2497 208.741 65.373C208.671 66.7263 208.706 68.0797 208.846 69.433C208.986 70.7863 209.01 72.1397 208.916 73.493C208.893 73.9363 208.986 74.368 209.196 74.788C209.406 75.208 209.511 75.593 209.511 75.943C209.511 76.2697 209.36 76.5147 209.056 76.678C208.776 76.818 208.543 76.888 208.356 76.888ZM201.426 74.438C201.753 74.4147 202.08 74.1813 202.406 73.738C202.756 73.2713 203.095 72.6763 203.421 71.953C203.748 71.2063 204.075 70.3897 204.401 69.503C204.728 68.6163 205.055 67.7413 205.381 66.878C205.708 65.898 205.836 65.0813 205.766 64.428C205.72 63.7513 205.428 63.2963 204.891 63.063C204.355 62.8297 203.503 62.888 202.336 63.238C201.426 63.518 200.68 64.0897 200.096 64.953C199.536 65.8163 199.233 66.7847 199.186 67.858C199.163 68.3713 199.14 68.9663 199.116 69.643C199.116 70.2963 199.14 70.8213 199.186 71.218C199.256 71.6613 199.326 72.1397 199.396 72.653C199.466 73.143 199.641 73.563 199.921 73.913C200.225 74.263 200.726 74.438 201.426 74.438Z" fill="#3B82F6"/>
<path d="M217.282 63.168C217.118 63.168 216.943 63.098 216.757 62.958C216.29 62.5613 215.812 62.153 215.322 61.733C214.855 61.2897 214.458 60.7413 214.132 60.088C214.528 59.598 214.902 59.353 215.252 59.353C215.532 59.353 215.8 59.5163 216.057 59.843C216.57 60.3563 217.013 60.7763 217.387 61.103C217.76 61.4063 217.947 61.803 217.947 62.293C217.947 62.5497 217.877 62.7597 217.737 62.923C217.62 63.0863 217.468 63.168 217.282 63.168ZM215.707 77.343C215.427 77.5063 215.17 77.4247 214.937 77.098C214.703 76.7947 214.517 76.398 214.377 75.908C214.237 75.3947 214.143 74.9747 214.097 74.648C213.98 73.6213 213.875 72.6063 213.782 71.603C213.712 70.5763 213.63 69.5497 213.537 68.523L213.782 65.933C213.828 65.4897 213.98 65.1513 214.237 64.918C214.517 64.6847 214.832 64.5913 215.182 64.638C215.485 64.6613 215.753 64.813 215.987 65.093C216.22 65.373 216.348 65.723 216.372 66.143C216.372 66.3063 216.348 66.493 216.302 66.703C216.255 66.8897 216.232 67.088 216.232 67.298C216.232 68.7213 216.232 70.1447 216.232 71.568C216.232 72.9913 216.243 74.4147 216.267 75.838C216.267 76.258 216.197 76.5963 216.057 76.853C215.94 77.1097 215.823 77.273 215.707 77.343Z" fill="#3B82F6"/>
<path d="M226.402 76.153C225.632 76.153 224.886 75.9547 224.162 75.558C223.299 75.0447 222.587 74.4147 222.027 73.668C221.467 72.898 221.059 72.0813 220.802 71.218C220.639 70.658 220.557 70.0397 220.557 69.363C220.557 68.0797 220.849 66.8313 221.432 65.618C221.782 64.9413 222.342 64.603 223.112 64.603C223.229 64.603 223.346 64.603 223.462 64.603C223.602 64.603 223.742 64.6263 223.882 64.673C224.069 64.6497 224.244 64.638 224.407 64.638C224.594 64.6147 224.757 64.5563 224.897 64.463C225.574 64.0897 226.239 63.903 226.892 63.903C227.499 63.903 228.071 64.0313 228.607 64.288C229.167 64.5213 229.704 64.8363 230.217 65.233C230.894 65.723 231.361 66.2947 231.617 66.948C231.874 67.578 232.002 68.2547 232.002 68.978C232.002 69.1413 232.002 69.328 232.002 69.538C232.002 69.7247 231.979 69.9113 231.932 70.098C231.792 70.9147 231.524 71.6847 231.127 72.408C230.754 73.1313 230.311 73.8313 229.797 74.508C229.401 75.0447 228.899 75.453 228.292 75.733C227.686 76.013 227.056 76.153 226.402 76.153ZM225.947 74.018C226.344 74.018 226.729 73.878 227.102 73.598C227.849 72.9913 228.432 72.303 228.852 71.533C229.272 70.763 229.576 69.9813 229.762 69.188C229.786 68.6047 229.634 68.033 229.307 67.473C229.004 66.913 228.654 66.5397 228.257 66.353C227.907 66.1897 227.534 66.108 227.137 66.108C226.554 66.108 225.947 66.3297 225.317 66.773C224.524 67.3563 223.952 67.9163 223.602 68.453C223.276 68.9663 223.112 69.4913 223.112 70.028C223.112 70.4713 223.206 70.9263 223.392 71.393C223.602 71.8363 223.859 72.3147 224.162 72.828C224.419 73.2247 224.699 73.528 225.002 73.738C225.329 73.9247 225.644 74.018 225.947 74.018Z" fill="#3B82F6"/>
<path d="M150.411 76.818C149.618 76.888 148.801 76.9113 147.961 76.888C147.121 76.8413 146.304 76.7363 145.511 76.573C144.718 76.4097 144.239 76.0597 144.076 75.523C143.913 74.9863 144.053 74.3563 144.496 73.633C145.779 74.2863 147.039 74.6597 148.276 74.753C149.536 74.8463 150.784 74.7647 152.021 74.508C153.258 74.228 154.483 73.8897 155.696 73.493C155.953 73.423 156.209 73.248 156.466 72.968C156.723 72.6647 156.839 72.4197 156.816 72.233C156.793 71.9763 156.664 71.708 156.431 71.428C156.198 71.1247 155.953 70.9147 155.696 70.798C154.343 70.0513 152.954 69.363 151.531 68.733C150.108 68.103 148.754 67.3563 147.471 66.493C145.978 65.4897 144.939 64.2997 144.356 62.923C143.773 61.523 143.901 60.0413 144.741 58.478C144.858 58.2447 144.986 58.023 145.126 57.813C145.289 57.5797 145.464 57.4047 145.651 57.288C146.888 56.5647 148.136 55.9813 149.396 55.538C150.656 55.0713 151.951 54.8263 153.281 54.803C154.634 54.7563 156.011 55.0247 157.411 55.608C158.228 55.9113 158.799 56.413 159.126 57.113C159.476 57.7897 159.511 58.513 159.231 59.283C159.184 59.4463 159.068 59.6213 158.881 59.808C158.718 59.9713 158.543 60.0763 158.356 60.123C158.263 60.1463 158.099 60.0763 157.866 59.913C157.656 59.7263 157.551 59.5747 157.551 59.458C157.574 58.7347 157.353 58.268 156.886 58.058C156.443 57.848 155.988 57.6963 155.521 57.603C154.214 57.3697 152.931 57.3463 151.671 57.533C150.411 57.6963 149.186 58.1163 147.996 58.793C147.086 59.3063 146.491 59.948 146.211 60.718C145.931 61.4647 145.954 62.223 146.281 62.993C146.608 63.763 147.226 64.4163 148.136 64.953C149.303 65.6297 150.504 66.2363 151.741 66.773C153.001 67.3097 154.226 67.893 155.416 68.523C155.976 68.8263 156.524 69.1763 157.061 69.573C157.598 69.9463 158.053 70.378 158.426 70.868C159.196 71.8013 159.464 72.7347 159.231 73.668C158.998 74.6013 158.309 75.2547 157.166 75.628C156.093 75.9547 154.984 76.2113 153.841 76.398C152.698 76.5613 151.554 76.7013 150.411 76.818Z" stroke="#3B82F6" stroke-width="2"/>
<path d="M193.381 78.953C193.078 79.0463 192.856 78.9997 192.716 78.813C192.576 78.6263 192.448 78.4163 192.331 78.183C191.864 77.0163 191.479 75.838 191.176 74.648C190.896 73.458 190.663 72.2447 190.476 71.008C190.453 70.798 190.394 70.518 190.301 70.168C190.231 69.7947 190.161 69.4447 190.091 69.118C190.021 68.768 189.963 68.558 189.916 68.488C189.753 68.488 189.566 68.5813 189.356 68.768C189.146 68.9313 188.948 69.1063 188.761 69.293C188.598 69.4797 188.481 69.608 188.411 69.678C187.968 70.238 187.583 70.7397 187.256 71.183C186.929 71.6263 186.603 72.0697 186.276 72.513C185.973 72.9563 185.588 73.458 185.121 74.018C184.794 74.4147 184.433 74.7647 184.036 75.068C183.639 75.348 183.138 75.4647 182.531 75.418C181.574 75.3247 180.863 74.8347 180.396 73.948C179.836 72.758 179.474 71.5213 179.311 70.238C179.171 68.9547 179.101 67.6713 179.101 66.388C179.124 65.828 179.136 65.268 179.136 64.708C179.136 64.148 179.148 63.588 179.171 63.028C179.171 62.398 178.891 62.153 178.331 62.293C177.654 62.4797 176.966 62.6897 176.266 62.923C175.566 63.133 174.854 63.3197 174.131 63.483C173.198 63.6463 172.603 64.0313 172.346 64.638C172.089 65.2213 171.926 65.8863 171.856 66.633C171.786 67.2863 171.669 68.1147 171.506 69.118C171.366 70.098 171.214 71.0897 171.051 72.093C170.888 73.073 170.736 73.9247 170.596 74.648C170.479 75.3713 170.398 75.803 170.351 75.943C170.211 76.433 170.001 76.888 169.721 77.308C169.651 77.4013 169.523 77.4597 169.336 77.483C169.173 77.5297 169.033 77.5413 168.916 77.518C168.823 77.4713 168.729 77.3663 168.636 77.203C168.566 77.0397 168.531 76.8997 168.531 76.783C168.601 75.8263 168.683 74.8697 168.776 73.913C168.869 72.9563 168.939 71.988 168.986 71.008C169.056 70.238 169.126 69.433 169.196 68.593C169.289 67.7297 169.348 66.913 169.371 66.143C169.418 65.5597 169.383 65.2447 169.266 65.198C169.149 65.1513 168.776 65.1863 168.146 65.303C167.376 65.4663 166.594 65.6413 165.801 65.828C165.008 66.0147 164.203 66.1663 163.386 66.283C162.686 66.3997 162.126 66.143 161.706 65.513C161.333 64.9063 161.449 64.5097 162.056 64.323C162.126 64.2763 162.406 64.1947 162.896 64.078C163.409 63.9613 164.016 63.833 164.716 63.693C165.416 63.5297 166.116 63.3663 166.816 63.203C167.516 63.0397 168.088 62.9113 168.531 62.818C168.951 62.7013 169.254 62.5147 169.441 62.258C169.651 62.0013 169.779 61.6513 169.826 61.208C170.059 59.458 170.129 57.7197 170.036 55.993C169.966 54.243 169.803 52.493 169.546 50.743C169.499 50.4397 169.441 50.1247 169.371 49.798C169.324 49.4713 169.523 49.2263 169.966 49.063C170.269 48.923 170.643 49.0163 171.086 49.343C171.529 49.6463 171.798 49.9963 171.891 50.393C171.891 50.4163 171.926 50.6613 171.996 51.128C172.066 51.5947 172.148 52.2013 172.241 52.948C172.334 53.6713 172.416 54.4763 172.486 55.363C172.556 56.2263 172.603 57.078 172.626 57.918C172.649 58.7347 172.614 59.4697 172.521 60.123C172.451 60.753 172.498 61.103 172.661 61.173C172.824 61.243 173.244 61.1963 173.921 61.033C174.691 60.8463 175.473 60.6713 176.266 60.508C177.059 60.3447 177.864 60.228 178.681 60.158C179.358 60.1113 179.953 60.3213 180.466 60.788C181.003 61.2313 181.318 61.7913 181.411 62.468C181.458 62.818 181.504 63.4247 181.551 64.288C181.621 65.128 181.679 66.0497 181.726 67.053C181.796 68.0563 181.854 69.0013 181.901 69.888C181.971 70.7747 182.041 71.428 182.111 71.848C182.134 71.988 182.193 72.1163 182.286 72.233C182.403 72.3497 182.484 72.4663 182.531 72.583C182.648 72.4897 182.764 72.4197 182.881 72.373C182.998 72.303 183.079 72.2213 183.126 72.128C183.896 71.1947 184.643 70.2613 185.366 69.328C186.113 68.3947 186.848 67.4613 187.571 66.528C188.201 65.7813 188.854 65.1397 189.531 64.603C189.904 64.323 190.254 64.218 190.581 64.288C190.931 64.358 191.211 64.5913 191.421 64.988C191.678 65.4313 191.911 65.9097 192.121 66.423C192.331 66.913 192.483 67.4147 192.576 67.928C192.693 68.488 192.809 69.1647 192.926 69.958C193.043 70.7513 193.171 71.568 193.311 72.408C193.451 73.248 193.568 74.053 193.661 74.823C193.778 75.5697 193.871 76.188 193.941 76.678C194.034 77.168 194.093 77.448 194.116 77.518C194.349 78.288 194.104 78.7663 193.381 78.953Z" stroke="#3B82F6" stroke-width="2"/>
<path d="M208.356 76.888C207.96 76.888 207.68 76.6897 207.516 76.293C207.213 75.523 207.015 74.893 206.921 74.403C206.828 73.913 206.793 73.4113 206.816 72.898C206.84 72.3613 206.851 71.6613 206.851 70.798C206.781 70.5413 206.665 70.5297 206.501 70.763C206.338 70.9963 206.151 71.3463 205.941 71.813C205.755 72.2563 205.568 72.6647 205.381 73.038C205.078 73.6213 204.716 74.1697 204.296 74.683C203.9 75.1963 203.386 75.6163 202.756 75.943C202.033 76.3163 201.333 76.4563 200.656 76.363C199.98 76.2697 199.373 75.9197 198.836 75.313C198.02 74.4263 197.413 73.4463 197.016 72.373C196.643 71.2763 196.538 70.1447 196.701 68.978C196.795 68.3947 196.876 67.8113 196.946 67.228C197.04 66.6447 197.168 66.0847 197.331 65.548C197.845 64.1013 198.731 62.9463 199.991 62.083C201.251 61.2197 202.461 60.6194 204.156 60.788C204.266 60.7989 204.327 60.8115 204.436 60.823C204.804 60.8614 205.031 60.8347 205.381 60.858C205.755 60.8813 205.988 60.893 206.081 60.893C206.291 58.933 206.431 57.3813 206.501 56.238C206.595 55.0713 206.676 54.208 206.746 53.648C206.84 53.088 206.968 52.7263 207.131 52.563C207.318 52.3997 207.586 52.318 207.936 52.318C208.333 52.318 208.578 52.4347 208.671 52.668C208.788 52.878 208.893 53.2397 208.986 53.753C209.243 55.5963 209.29 57.463 209.126 59.353C208.986 61.243 208.858 63.2497 208.741 65.373C208.671 66.7263 208.706 68.0797 208.846 69.433C208.986 70.7863 209.01 72.1397 208.916 73.493C208.893 73.9363 208.986 74.368 209.196 74.788C209.406 75.208 209.511 75.593 209.511 75.943C209.511 76.2697 209.36 76.5147 209.056 76.678C208.776 76.818 208.543 76.888 208.356 76.888ZM201.426 74.438C201.753 74.4147 202.08 74.1813 202.406 73.738C202.756 73.2713 203.095 72.6763 203.421 71.953C203.748 71.2063 204.075 70.3897 204.401 69.503C204.728 68.6163 205.055 67.7413 205.381 66.878C205.708 65.898 205.836 65.0813 205.766 64.428C205.72 63.7513 205.428 63.2963 204.891 63.063C204.355 62.8297 203.503 62.888 202.336 63.238C201.426 63.518 200.68 64.0897 200.096 64.953C199.536 65.8163 199.233 66.7847 199.186 67.858C199.163 68.3713 199.14 68.9663 199.116 69.643C199.116 70.2963 199.14 70.8213 199.186 71.218C199.256 71.6613 199.326 72.1397 199.396 72.653C199.466 73.143 199.641 73.563 199.921 73.913C200.225 74.263 200.726 74.438 201.426 74.438Z" stroke="#3B82F6" stroke-width="2"/>
<path d="M217.282 63.168C217.118 63.168 216.943 63.098 216.757 62.958C216.29 62.5613 215.812 62.153 215.322 61.733C214.855 61.2897 214.458 60.7413 214.132 60.088C214.528 59.598 214.902 59.353 215.252 59.353C215.532 59.353 215.8 59.5163 216.057 59.843C216.57 60.3563 217.013 60.7763 217.387 61.103C217.76 61.4063 217.947 61.803 217.947 62.293C217.947 62.5497 217.877 62.7597 217.737 62.923C217.62 63.0863 217.468 63.168 217.282 63.168ZM215.707 77.343C215.427 77.5063 215.17 77.4247 214.937 77.098C214.703 76.7947 214.517 76.398 214.377 75.908C214.237 75.3947 214.143 74.9747 214.097 74.648C213.98 73.6213 213.875 72.6063 213.782 71.603C213.712 70.5763 213.63 69.5497 213.537 68.523L213.782 65.933C213.828 65.4897 213.98 65.1513 214.237 64.918C214.517 64.6847 214.832 64.5913 215.182 64.638C215.485 64.6613 215.753 64.813 215.987 65.093C216.22 65.373 216.348 65.723 216.372 66.143C216.372 66.3063 216.348 66.493 216.302 66.703C216.255 66.8897 216.232 67.088 216.232 67.298C216.232 68.7213 216.232 70.1447 216.232 71.568C216.232 72.9913 216.243 74.4147 216.267 75.838C216.267 76.258 216.197 76.5963 216.057 76.853C215.94 77.1097 215.823 77.273 215.707 77.343Z" stroke="#3B82F6" stroke-width="2"/>
<path d="M226.402 76.153C225.632 76.153 224.886 75.9547 224.162 75.558C223.299 75.0447 222.587 74.4147 222.027 73.668C221.467 72.898 221.059 72.0813 220.802 71.218C220.639 70.658 220.557 70.0397 220.557 69.363C220.557 68.0797 220.849 66.8313 221.432 65.618C221.782 64.9413 222.342 64.603 223.112 64.603C223.229 64.603 223.346 64.603 223.462 64.603C223.602 64.603 223.742 64.6263 223.882 64.673C224.069 64.6497 224.244 64.638 224.407 64.638C224.594 64.6147 224.757 64.5563 224.897 64.463C225.574 64.0897 226.239 63.903 226.892 63.903C227.499 63.903 228.071 64.0313 228.607 64.288C229.167 64.5213 229.704 64.8363 230.217 65.233C230.894 65.723 231.361 66.2947 231.617 66.948C231.874 67.578 232.002 68.2547 232.002 68.978C232.002 69.1413 232.002 69.328 232.002 69.538C232.002 69.7247 231.979 69.9113 231.932 70.098C231.792 70.9147 231.524 71.6847 231.127 72.408C230.754 73.1313 230.311 73.8313 229.797 74.508C229.401 75.0447 228.899 75.453 228.292 75.733C227.686 76.013 227.056 76.153 226.402 76.153ZM225.947 74.018C226.344 74.018 226.729 73.878 227.102 73.598C227.849 72.9913 228.432 72.303 228.852 71.533C229.272 70.763 229.576 69.9813 229.762 69.188C229.786 68.6047 229.634 68.033 229.307 67.473C229.004 66.913 228.654 66.5397 228.257 66.353C227.907 66.1897 227.534 66.108 227.137 66.108C226.554 66.108 225.947 66.3297 225.317 66.773C224.524 67.3563 223.952 67.9163 223.602 68.453C223.276 68.9663 223.112 69.4913 223.112 70.028C223.112 70.4713 223.206 70.9263 223.392 71.393C223.602 71.8363 223.859 72.3147 224.162 72.828C224.419 73.2247 224.699 73.528 225.002 73.738C225.329 73.9247 225.644 74.018 225.947 74.018Z" stroke="#3B82F6" stroke-width="2"/>
</svg>
