<svg width="68" height="68" viewBox="0 0 68 68" fill="none" xmlns="http://www.w3.org/2000/svg">
<path d="M29.1429 38.8571H4.85714C3.48095 38.8571 2.32738 38.3917 1.39643 37.4607C0.465476 36.5298 0 35.3762 0 34C0 32.6238 0.465476 31.4702 1.39643 30.5393C2.32738 29.6083 3.48095 29.1429 4.85714 29.1429H29.1429V4.85714C29.1429 3.48095 29.6083 2.32738 30.5393 1.39643C31.4702 0.465476 32.6238 0 34 0C35.3762 0 36.5298 0.465476 37.4607 1.39643C38.3917 2.32738 38.8571 3.48095 38.8571 4.85714V29.1429H63.1429C64.5191 29.1429 65.6726 29.6083 66.6036 30.5393C67.5345 31.4702 68 32.6238 68 34C68 35.3762 67.5345 36.5298 66.6036 37.4607C65.6726 38.3917 64.5191 38.8571 63.1429 38.8571H38.8571V63.1429C38.8571 64.5191 38.3917 65.6726 37.4607 66.6036C36.5298 67.5345 35.3762 68 34 68C32.6238 68 31.4702 67.5345 30.5393 66.6036C29.6083 65.6726 29.1429 64.5191 29.1429 63.1429V38.8571Z" fill="#E3E3E3"/>
</svg>
