<svg width="79" height="79" viewBox="0 0 79 79" fill="none" xmlns="http://www.w3.org/2000/svg">
<path d="M7.9 79C5.7275 79 3.86771 78.2274 2.32063 76.6823C0.773542 75.1371 0 73.2796 0 71.1099V15.8789C0 13.7091 0.773542 11.8516 2.32063 10.3065C3.86771 8.76134 5.7275 7.98876 7.9 7.98876H33.6738C34.9904 7.98876 35.9779 8.39971 36.6362 9.2216C37.2946 10.0435 37.6238 10.9476 37.6238 11.9338C37.6238 12.9201 37.2781 13.8242 36.5869 14.6461C35.8956 15.468 34.8917 15.8789 33.575 15.8789H7.9V71.1099H63.2V45.3683C63.2 44.0533 63.6115 43.067 64.4344 42.4095C65.2573 41.752 66.1625 41.4232 67.15 41.4232C68.1375 41.4232 69.0427 41.752 69.8656 42.4095C70.6885 43.067 71.1 44.0533 71.1 45.3683V71.1099C71.1 73.2796 70.3265 75.1371 68.7794 76.6823C67.2323 78.2274 65.3725 79 63.2 79H7.9ZM23.7 51.3845V41.8177C23.7 40.7657 23.8975 39.763 24.2925 38.8096C24.6875 37.8562 25.2471 37.0179 25.9713 36.2946L59.9412 2.36704C60.7313 1.57803 61.62 0.986267 62.6075 0.59176C63.595 0.197253 64.5825 0 65.57 0C66.6233 0 67.6273 0.197253 68.5819 0.59176C69.5365 0.986267 70.4088 1.57803 71.1988 2.36704L76.7288 7.98876C77.4529 8.77778 78.0125 9.64898 78.4075 10.6024C78.8025 11.5558 79 12.5256 79 13.5119C79 14.4981 78.819 15.468 78.4569 16.4213C78.0948 17.3747 77.5188 18.2459 76.7288 19.035L42.7588 52.9625C42.0346 53.6858 41.1952 54.2611 40.2406 54.6885C39.286 55.1159 38.2821 55.3296 37.2288 55.3296H27.65C26.5308 55.3296 25.5927 54.9515 24.8356 54.1954C24.0785 53.4392 23.7 52.5023 23.7 51.3845ZM31.6 47.4395H37.13L60.04 24.5581L57.275 21.7965L54.4113 19.035L31.6 41.8177V47.4395Z" fill="#E3E3E3"/>
</svg>
