<svg width="34" height="34" viewBox="0 0 34 34" fill="none" xmlns="http://www.w3.org/2000/svg">
<path d="M16.5833 26.6667C17.1667 26.6667 17.6597 26.4653 18.0625 26.0625C18.4653 25.6597 18.6667 25.1667 18.6667 24.5833C18.6667 24 18.4653 23.5069 18.0625 23.1042C17.6597 22.7014 17.1667 22.5 16.5833 22.5C16 22.5 15.5069 22.7014 15.1042 23.1042C14.7014 23.5069 14.5 24 14.5 24.5833C14.5 25.1667 14.7014 25.6597 15.1042 26.0625C15.5069 26.4653 16 26.6667 16.5833 26.6667ZM16.6667 33.3333C14.3611 33.3333 12.1944 32.8958 10.1667 32.0208C8.13889 31.1458 6.375 29.9583 4.875 28.4583C3.375 26.9583 2.1875 25.1944 1.3125 23.1667C0.4375 21.1389 0 18.9722 0 16.6667C0 14.3611 0.4375 12.1944 1.3125 10.1667C2.1875 8.13889 3.375 6.375 4.875 4.875C6.375 3.375 8.13889 2.1875 10.1667 1.3125C12.1944 0.4375 14.3611 0 16.6667 0C18.9722 0 21.1389 0.4375 23.1667 1.3125C25.1944 2.1875 26.9583 3.375 28.4583 4.875C29.9583 6.375 31.1458 8.13889 32.0208 10.1667C32.8958 12.1944 33.3333 14.3611 33.3333 16.6667C33.3333 18.9722 32.8958 21.1389 32.0208 23.1667C31.1458 25.1944 29.9583 26.9583 28.4583 28.4583C26.9583 29.9583 25.1944 31.1458 23.1667 32.0208C21.1389 32.8958 18.9722 33.3333 16.6667 33.3333ZM16.6667 30C20.3889 30 23.5417 28.7083 26.125 26.125C28.7083 23.5417 30 20.3889 30 16.6667C30 12.9444 28.7083 9.79167 26.125 7.20833C23.5417 4.625 20.3889 3.33333 16.6667 3.33333C12.9444 3.33333 9.79167 4.625 7.20833 7.20833C4.625 9.79167 3.33333 12.9444 3.33333 16.6667C3.33333 20.3889 4.625 23.5417 7.20833 26.125C9.79167 28.7083 12.9444 30 16.6667 30ZM16.8333 9.5C17.5278 9.5 18.1319 9.72222 18.6458 10.1667C19.1597 10.6111 19.4167 11.1667 19.4167 11.8333C19.4167 12.4444 19.2292 12.9861 18.8542 13.4583C18.4792 13.9306 18.0556 14.375 17.5833 14.7917C16.9444 15.3472 16.3819 15.9583 15.8958 16.625C15.4097 17.2917 15.1667 18.0417 15.1667 18.875C15.1667 19.2639 15.3125 19.5903 15.6042 19.8542C15.8958 20.1181 16.2361 20.25 16.625 20.25C17.0417 20.25 17.3958 20.1111 17.6875 19.8333C17.9792 19.5556 18.1667 19.2083 18.25 18.7917C18.3611 18.2083 18.6111 17.6875 19 17.2292C19.3889 16.7708 19.8056 16.3333 20.25 15.9167C20.8889 15.3056 21.4375 14.6389 21.8958 13.9167C22.3542 13.1944 22.5833 12.3889 22.5833 11.5C22.5833 10.0833 22.0069 8.92361 20.8542 8.02083C19.7014 7.11806 18.3611 6.66667 16.8333 6.66667C15.7778 6.66667 14.7708 6.88889 13.8125 7.33333C12.8542 7.77778 12.125 8.45833 11.625 9.375C11.4306 9.70833 11.3681 10.0625 11.4375 10.4375C11.5069 10.8125 11.6944 11.0972 12 11.2917C12.3889 11.5139 12.7917 11.5833 13.2083 11.5C13.625 11.4167 13.9722 11.1806 14.25 10.7917C14.5556 10.375 14.9375 10.0556 15.3958 9.83333C15.8542 9.61111 16.3333 9.5 16.8333 9.5Z" fill="#E3E3E3"/>
</svg>
