<svg width="37" height="32" viewBox="0 0 37 32" fill="none" xmlns="http://www.w3.org/2000/svg">
<path d="M30 15C30.9167 15 31.7014 14.6736 32.3542 14.0208C33.0069 13.3681 33.3333 12.5833 33.3333 11.6667C33.3333 10.8889 33.1528 10.2917 32.7917 9.875C32.4306 9.45833 32.0556 9.05556 31.6667 8.66667V5C31.6667 4.52778 31.5069 4.13194 31.1875 3.8125C30.8681 3.49306 30.4722 3.33333 30 3.33333C29.5278 3.33333 29.1319 3.49306 28.8125 3.8125C28.4931 4.13194 28.3333 4.52778 28.3333 5V8.66667C27.9444 9.05556 27.5694 9.45833 27.2083 9.875C26.8472 10.2917 26.6667 10.8889 26.6667 11.6667C26.6667 12.5833 26.9931 13.3681 27.6458 14.0208C28.2986 14.6736 29.0833 15 30 15ZM6.66667 18.3333H11.1667L9.58333 15.7917C9.41667 15.5417 9.21528 15.3472 8.97917 15.2083C8.74306 15.0694 8.47222 15 8.16667 15H6.66667V18.3333ZM6.66667 28.3333H20.1667C19.3056 28.3333 18.5069 28.125 17.7708 27.7083C17.0347 27.2917 16.4306 26.7222 15.9583 26L13.25 21.6667H6.66667V28.3333ZM1.66667 31.6667C1.19444 31.6667 0.798611 31.5069 0.479167 31.1875C0.159722 30.8681 0 30.4722 0 30C0 29.5278 0.159722 29.1319 0.479167 28.8125C0.798611 28.4931 1.19444 28.3333 1.66667 28.3333H3.33333V10C3.33333 9.52778 3.49306 9.13194 3.8125 8.8125C4.13194 8.49306 4.52778 8.33333 5 8.33333C5.47222 8.33333 5.86806 8.49306 6.1875 8.8125C6.50694 9.13194 6.66667 9.52778 6.66667 10V11.6667H8.16667C9.02778 11.6667 9.82639 11.875 10.5625 12.2917C11.2986 12.7083 11.9028 13.2778 12.375 14L18.75 24.2083C18.9167 24.4583 19.1181 24.6528 19.3542 24.7917C19.5903 24.9306 19.8611 25 20.1667 25H23.3333C23.8056 25 24.2014 25.1597 24.5208 25.4792C24.8403 25.7986 25 26.1944 25 26.6667V28.3333H28.3333V18.0833C26.8889 17.6944 25.6944 16.9167 24.75 15.75C23.8056 14.5833 23.3333 13.2222 23.3333 11.6667C23.3333 10.7222 23.5139 9.84028 23.875 9.02083C24.2361 8.20139 24.7361 7.48611 25.375 6.875C25.2361 6.56944 25.1389 6.26389 25.0833 5.95833C25.0278 5.65278 25 5.33333 25 5C25 3.61111 25.4861 2.43056 26.4583 1.45833C27.4306 0.486111 28.6111 0 30 0C31.3889 0 32.5694 0.486111 33.5417 1.45833C34.5139 2.43056 35 3.61111 35 5C35 5.33333 34.9722 5.65278 34.9167 5.95833C34.8611 6.26389 34.7639 6.56944 34.625 6.875C35.2639 7.48611 35.7639 8.20139 36.125 9.02083C36.4861 9.84028 36.6667 10.7222 36.6667 11.6667C36.6667 13.2222 36.1944 14.5833 35.25 15.75C34.3056 16.9167 33.1111 17.6944 31.6667 18.0833V28.3333H35C35.4722 28.3333 35.8681 28.4931 36.1875 28.8125C36.5069 29.1319 36.6667 29.5278 36.6667 30C36.6667 30.4722 36.5069 30.8681 36.1875 31.1875C35.8681 31.5069 35.4722 31.6667 35 31.6667H1.66667Z" fill="#E3E3E3"/>
</svg>
