<svg width="14" height="14" viewBox="0 0 14 14" fill="none" xmlns="http://www.w3.org/2000/svg">
<path d="M1.75 14C1.26875 14 0.856771 13.824 0.514062 13.4719C0.171354 13.1199 0 12.6966 0 12.2022V10.4045C0 10.1498 0.0838542 9.93633 0.251563 9.76404C0.419271 9.59176 0.627083 9.50562 0.875 9.50562C1.12292 9.50562 1.33073 9.59176 1.49844 9.76404C1.66615 9.93633 1.75 10.1498 1.75 10.4045V12.2022H12.25V10.4045C12.25 10.1498 12.3339 9.93633 12.5016 9.76404C12.6693 9.59176 12.8771 9.50562 13.125 9.50562C13.3729 9.50562 13.5807 9.59176 13.7484 9.76404C13.9161 9.93633 14 10.1498 14 10.4045V12.2022C14 12.6966 13.8286 13.1199 13.4859 13.4719C13.1432 13.824 12.7312 14 12.25 14H1.75ZM6.125 3.07865L4.48438 4.76404C4.30937 4.94382 4.10156 5.02996 3.86094 5.02247C3.62031 5.01498 3.4125 4.92135 3.2375 4.74157C3.07708 4.5618 2.99323 4.35206 2.98594 4.11236C2.97865 3.87266 3.0625 3.66292 3.2375 3.48315L6.3875 0.247191C6.475 0.157303 6.56979 0.093633 6.67188 0.0561798C6.77396 0.0187266 6.88333 0 7 0C7.11667 0 7.22604 0.0187266 7.32812 0.0561798C7.43021 0.093633 7.525 0.157303 7.6125 0.247191L10.7625 3.48315C10.9375 3.66292 11.0214 3.87266 11.0141 4.11236C11.0068 4.35206 10.9229 4.5618 10.7625 4.74157C10.5875 4.92135 10.3797 5.01498 10.1391 5.02247C9.89844 5.02996 9.69063 4.94382 9.51562 4.76404L7.875 3.07865V9.50562C7.875 9.7603 7.79115 9.97378 7.62344 10.1461C7.45573 10.3184 7.24792 10.4045 7 10.4045C6.75208 10.4045 6.54427 10.3184 6.37656 10.1461C6.20885 9.97378 6.125 9.7603 6.125 9.50562V3.07865Z" fill="#E3E3E3"/>
</svg>
